<mxfile host="65bd71144e">
    <diagram id="ETBw4vPyI1mWKPedyEt5" name="Page-1">
        <mxGraphModel dx="616" dy="1058" grid="1" gridSize="10" guides="1" tooltips="1" connect="1" arrows="1" fold="1" page="1" pageScale="1" pageWidth="2339" pageHeight="3300" math="0" shadow="0">
            <root>
                <mxCell id="0"/>
                <mxCell id="1" parent="0"/>
                <mxCell id="2" value="Anweisung" style="rounded=0;whiteSpace=wrap;html=1;fontFamily=Alegreya;fontSource=https%3A%2F%2Ffonts.googleapis.com%2Fcss%3Ffamily%3DAlegreya;align=left;spacingLeft=3;spacing=3;spacingBottom=0;spacingRight=0;" vertex="1" parent="1">
                    <mxGeometry x="300" y="270" width="80" height="30" as="geometry"/>
                </mxCell>
                <mxCell id="3" value="Um Algorithmen unabhängig von einer speziellen Programmiersprache beschreiben zu können, hat man verschiedene grafische Darstellungsformen entwickelt. Eine davon ist das Struktogramm. Ein solches setzt sich aus wenigen grundlegenden Bausteinen zusammen:" style="text;whiteSpace=wrap;html=1;fontFamily=Alegreya;fontSource=https%3A%2F%2Ffonts.googleapis.com%2Fcss%3Ffamily%3DAlegreya;" vertex="1" parent="1">
                    <mxGeometry x="310" y="130" width="450" height="70" as="geometry"/>
                </mxCell>
                <mxCell id="4" value="Klett Informatik 2A 2021 Seite 95" style="text;whiteSpace=wrap;html=1;fontFamily=Alegreya;fontSource=https%3A%2F%2Ffonts.googleapis.com%2Fcss%3Ffamily%3DAlegreya;" vertex="1" parent="1">
                    <mxGeometry x="320" y="90" width="190" height="30" as="geometry"/>
                </mxCell>
                <mxCell id="5" value="Elementare Anweisung" style="text;html=1;strokeColor=none;fillColor=none;align=center;verticalAlign=middle;whiteSpace=wrap;rounded=0;fontFamily=Alegreya Sans;fontSource=https%3A%2F%2Ffonts.googleapis.com%2Fcss%3Ffamily%3DAlegreya%2BSans;fontStyle=1" vertex="1" parent="1">
                    <mxGeometry x="300" y="210" width="60" height="30" as="geometry"/>
                </mxCell>
                <mxCell id="6" value="Sequenz" style="text;html=1;strokeColor=none;fillColor=none;align=center;verticalAlign=middle;whiteSpace=wrap;rounded=0;fontFamily=Alegreya Sans;fontSource=https%3A%2F%2Ffonts.googleapis.com%2Fcss%3Ffamily%3DAlegreya%2BSans;fontStyle=1" vertex="1" parent="1">
                    <mxGeometry x="480" y="200" width="60" height="30" as="geometry"/>
                </mxCell>
                <mxCell id="11" value="&lt;div&gt;Eine Sequenz kann elementare Anweisungen, Wiederholungen oder bedingte Anweisungen&amp;nbsp;&lt;span style=&quot;background-color: initial;&quot;&gt;enthalten. So lassen sich durch Aneinanderreihung und Ineinanderschachtelung der Grund&lt;/span&gt;&lt;span style=&quot;background-color: initial;&quot;&gt;elemente auch kompliziertere Algorithmen beschreiben.&lt;/span&gt;&lt;/div&gt;" style="text;html=1;strokeColor=none;fillColor=none;align=left;verticalAlign=middle;whiteSpace=wrap;rounded=0;fontFamily=Alegreya Sans;fontSource=https%3A%2F%2Ffonts.googleapis.com%2Fcss%3Ffamily%3DAlegreya%2BSans;" vertex="1" parent="1">
                    <mxGeometry x="320" y="500" width="560" height="70" as="geometry"/>
                </mxCell>
                <mxCell id="20" value="Bedingte Anweisung" style="text;html=1;strokeColor=none;fillColor=none;align=center;verticalAlign=middle;whiteSpace=wrap;rounded=0;fontFamily=Alegreya Sans;fontSource=https%3A%2F%2Ffonts.googleapis.com%2Fcss%3Ffamily%3DAlegreya%2BSans;fontStyle=1" vertex="1" parent="1">
                    <mxGeometry x="675" y="200" width="120" height="30" as="geometry"/>
                </mxCell>
                <mxCell id="21" value="" style="group" vertex="1" connectable="0" parent="1">
                    <mxGeometry x="670" y="260" width="160" height="90" as="geometry"/>
                </mxCell>
                <mxCell id="13" value="" style="rounded=0;whiteSpace=wrap;html=1;fontFamily=Alegreya;fontSource=https%3A%2F%2Ffonts.googleapis.com%2Fcss%3Ffamily%3DAlegreya;align=left;spacingLeft=3;spacing=3;spacingBottom=0;spacingRight=0;" vertex="1" parent="21">
                    <mxGeometry width="160" height="60" as="geometry"/>
                </mxCell>
                <mxCell id="12" value="" style="verticalLabelPosition=bottom;verticalAlign=top;html=1;shape=mxgraph.basic.acute_triangle;dx=0.5;fontFamily=Alegreya Sans;fontSource=https%3A%2F%2Ffonts.googleapis.com%2Fcss%3Ffamily%3DAlegreya%2BSans;direction=west;" vertex="1" parent="21">
                    <mxGeometry width="160" height="60" as="geometry"/>
                </mxCell>
                <mxCell id="15" value="Sequenz 1" style="rounded=0;whiteSpace=wrap;html=1;fontFamily=Alegreya;fontSource=https%3A%2F%2Ffonts.googleapis.com%2Fcss%3Ffamily%3DAlegreya;align=left;spacingLeft=3;spacing=3;spacingBottom=0;spacingRight=0;" vertex="1" parent="21">
                    <mxGeometry y="60" width="80" height="30" as="geometry"/>
                </mxCell>
                <mxCell id="16" value="Sequenz 2" style="rounded=0;whiteSpace=wrap;html=1;fontFamily=Alegreya;fontSource=https%3A%2F%2Ffonts.googleapis.com%2Fcss%3Ffamily%3DAlegreya;align=left;spacingLeft=3;spacing=3;spacingBottom=0;spacingRight=0;" vertex="1" parent="21">
                    <mxGeometry x="80" y="60" width="80" height="30" as="geometry"/>
                </mxCell>
                <mxCell id="17" value="wahr" style="text;html=1;strokeColor=none;fillColor=none;align=center;verticalAlign=middle;whiteSpace=wrap;rounded=0;fontFamily=Alegreya Sans;fontSource=https%3A%2F%2Ffonts.googleapis.com%2Fcss%3Ffamily%3DAlegreya%2BSans;spacing=0;" vertex="1" parent="21">
                    <mxGeometry x="5" y="35" width="40" height="20" as="geometry"/>
                </mxCell>
                <mxCell id="18" value="falsch" style="text;html=1;strokeColor=none;fillColor=none;align=center;verticalAlign=middle;whiteSpace=wrap;rounded=0;fontFamily=Alegreya Sans;fontSource=https%3A%2F%2Ffonts.googleapis.com%2Fcss%3Ffamily%3DAlegreya%2BSans;spacing=0;" vertex="1" parent="21">
                    <mxGeometry x="110" y="35" width="50" height="20" as="geometry"/>
                </mxCell>
                <mxCell id="19" value="Bedingung" style="text;html=1;strokeColor=none;fillColor=none;align=center;verticalAlign=middle;whiteSpace=wrap;rounded=0;fontFamily=Alegreya Sans;fontSource=https%3A%2F%2Ffonts.googleapis.com%2Fcss%3Ffamily%3DAlegreya%2BSans;spacing=0;" vertex="1" parent="21">
                    <mxGeometry x="40" y="10" width="70" height="20" as="geometry"/>
                </mxCell>
                <mxCell id="22" value="" style="group" vertex="1" connectable="0" parent="1">
                    <mxGeometry x="470" y="260" width="80" height="120" as="geometry"/>
                </mxCell>
                <mxCell id="7" value="Anweisung 1" style="rounded=0;whiteSpace=wrap;html=1;fontFamily=Alegreya;fontSource=https%3A%2F%2Ffonts.googleapis.com%2Fcss%3Ffamily%3DAlegreya;align=left;spacingLeft=3;spacing=3;spacingBottom=0;spacingRight=0;" vertex="1" parent="22">
                    <mxGeometry width="80" height="30" as="geometry"/>
                </mxCell>
                <mxCell id="8" value="Anweisung 2" style="rounded=0;whiteSpace=wrap;html=1;fontFamily=Alegreya;fontSource=https%3A%2F%2Ffonts.googleapis.com%2Fcss%3Ffamily%3DAlegreya;align=left;spacingLeft=3;spacing=3;spacingBottom=0;spacingRight=0;" vertex="1" parent="22">
                    <mxGeometry y="30" width="80" height="30" as="geometry"/>
                </mxCell>
                <mxCell id="9" value="Anweisung n" style="rounded=0;whiteSpace=wrap;html=1;fontFamily=Alegreya;fontSource=https%3A%2F%2Ffonts.googleapis.com%2Fcss%3Ffamily%3DAlegreya;align=left;spacingLeft=3;spacing=3;spacingBottom=0;spacingRight=0;" vertex="1" parent="22">
                    <mxGeometry y="90" width="80" height="30" as="geometry"/>
                </mxCell>
                <mxCell id="10" value="..." style="rounded=0;whiteSpace=wrap;html=1;fontFamily=Alegreya;fontSource=https%3A%2F%2Ffonts.googleapis.com%2Fcss%3Ffamily%3DAlegreya;align=left;spacingLeft=3;spacing=3;spacingBottom=0;spacingRight=0;" vertex="1" parent="22">
                    <mxGeometry y="60" width="80" height="30" as="geometry"/>
                </mxCell>
            </root>
        </mxGraphModel>
    </diagram>
</mxfile>
